<svg width="48" height="64" viewBox="0 0 48 64" fill="none" xmlns="http://www.w3.org/2000/svg">
<path fill-rule="evenodd" clip-rule="evenodd" d="M44 2H4V0H44.5V2H46V4H44V2ZM46 54V4H48V54H46ZM2 54L46 54V64H2L2 54ZM2 4L2 54H2.14577e-06L0 4H2ZM2 4H4V2H2V4ZM40 8H8V6H40V8ZM40 34V8H42V34H40ZM8 34H40V36H8V34ZM8 34H6V8H8V34ZM12 15V13H14V15H12ZM16 15V17H14V15H16ZM16 17V19H18V17H16ZM14 17H12V19H14V17ZM16 15H18V13H16V15ZM28 15V13H30V15H28ZM32 15V17H30V15H32ZM32 17V19H34V17H32ZM30 17H28V19H30V17ZM32 15H34V13H32V15ZM18 22V20H20V22H18ZM24 22V24H20V22H24ZM24 22H26V20H24V22ZM28 28H18V26H28V28ZM32 30H28V28H32V30ZM32 30V32H34V30H32ZM16 30V28H18V30H16ZM40 44V46H28V44H40ZM10 46V48H6V46H10ZM4 56V62H44V56H4Z" fill="currentColor"/>
</svg>
