<svg width="48" height="64" viewBox="0 0 48 64" fill="none" xmlns="http://www.w3.org/2000/svg">
<path fill-rule="evenodd" clip-rule="evenodd" d="M44 2H4V0H44.5V2H46V4H44V2ZM46 54V4H48V54H46ZM2 54L46 54V64H2L2 54ZM2 4L2 54H2.14577e-06L0 4H2ZM2 4H4V2H2V4ZM40 8H8V6H40V8ZM40 34V8H42V34H40ZM8 34H40V36H8V34ZM8 34H6V8H8V34ZM12 14V12H14V14H12ZM16 14V12H18V14H16ZM20 14V12H22V14H20ZM24 14V12H26V14H24ZM28 14V12H30V14H28ZM32 14V12H34V14H32ZM12 18V16H14V18H12ZM16 18V16H18V18H16ZM20 18V16H22V18H20ZM24 18V16H26V18H24ZM12 22V20H14V22H12ZM16 22V20H18V22H16ZM12 26V24H14V26H12ZM16 26V24H18V26H16ZM12 30V28H14V30H12ZM16 30V28H18V30H16ZM20 30V28H22V30H20ZM40 44V46H28V44H40ZM10 46V48H6V46H10ZM4 56V62H44V56H4Z" fill="currentColor"/>
</svg>
