<svg xmlns="http://www.w3.org/2000/svg" viewBox="0 -0.5 24 24" shape-rendering="crispEdges">
<metadata>Made with Pixels to Svg https://codepen.io/shshaw/pen/XbxvNj</metadata>
<path stroke="rgba(0,0,0,0.25098039215686274)" d="M2 4h1M21 4h1M4 6h1M19 6h1M18 7h1M5 10h1M9 10h1M14 10h1M18 10h1M14 13h1M10 14h1M13 14h1M2 19h1M21 19h1" />
<path stroke="rgba(0,0,0,0.7490196078431373)" d="M3 4h1M20 4h1M2 5h1M21 5h1M16 9h1M16 11h1M12 14h1M2 18h1M21 18h1M3 19h1M20 19h1" />
<path stroke="#000000" d="M4 4h16M3 5h18M2 6h2M20 6h2M2 7h3M19 7h3M2 8h4M18 8h4M2 9h2M5 9h2M17 9h2M20 9h2M2 10h2M6 10h3M15 10h3M20 10h2M2 11h2M8 11h2M14 11h2M20 11h2M2 12h2M9 12h2M13 12h2M20 12h2M2 13h2M10 13h4M20 13h2M2 14h2M20 14h2M2 15h2M20 15h2M2 16h2M20 16h2M2 17h2M20 17h2M3 18h18M4 19h16" />
<path stroke="rgba(0,0,0,0.5019607843137255)" d="M5 7h1M6 8h1M17 8h1M4 9h1M7 9h1M19 9h1M7 11h1M10 11h1M13 11h1M8 12h1M11 12h2M15 12h1M9 13h1M11 14h1" />
</svg>