<svg width="64" height="40" viewBox="0 0 64 40" fill="none" xmlns="http://www.w3.org/2000/svg">
<path fill-rule="evenodd" clip-rule="evenodd" d="M14 38V36H16V38H14Z" fill="currentColor"/>
<path fill-rule="evenodd" clip-rule="evenodd" d="M12 36V34H14V36H12Z" fill="currentColor"/>
<path fill-rule="evenodd" clip-rule="evenodd" d="M10 34V32H12V34H10Z" fill="currentColor"/>
<path fill-rule="evenodd" clip-rule="evenodd" d="M8 32V30H10V32H8Z" fill="currentColor"/>
<path fill-rule="evenodd" clip-rule="evenodd" d="M6 30V28H8V30H6Z" fill="currentColor"/>
<path fill-rule="evenodd" clip-rule="evenodd" d="M4 28V26H6V28H4Z" fill="currentColor"/>
<path fill-rule="evenodd" clip-rule="evenodd" d="M2 26V24H4V26H2Z" fill="currentColor"/>
<path fill-rule="evenodd" clip-rule="evenodd" d="M32 24V22H34V24H32Z" fill="currentColor"/>
<path fill-rule="evenodd" clip-rule="evenodd" d="M34 26V24H36V26H34Z" fill="currentColor"/>
<path fill-rule="evenodd" clip-rule="evenodd" d="M36 28V26H38V28H36Z" fill="currentColor"/>
<path fill-rule="evenodd" clip-rule="evenodd" d="M38 30V28H40V30H38Z" fill="currentColor"/>
<path fill-rule="evenodd" clip-rule="evenodd" d="M42 32H40V30H46V28H48V30H50V32H44V34H42V32Z" fill="currentColor"/>
<path fill-rule="evenodd" clip-rule="evenodd" d="M54 34V32H56V34H54Z" fill="currentColor"/>
<path fill-rule="evenodd" clip-rule="evenodd" d="M56 32V30H58V32H56Z" fill="currentColor"/>
<path fill-rule="evenodd" clip-rule="evenodd" d="M58 30V28H60V30H58Z" fill="currentColor"/>
<path fill-rule="evenodd" clip-rule="evenodd" d="M60 28V26H62V28H60Z" fill="currentColor"/>
<path fill-rule="evenodd" clip-rule="evenodd" d="M62 26V24H64V26H62Z" fill="currentColor"/>
<path fill-rule="evenodd" clip-rule="evenodd" d="M54 26V24H56V26H54Z" fill="currentColor"/>
<path fill-rule="evenodd" clip-rule="evenodd" d="M60 20V18H62V20H60Z" fill="currentColor"/>
<path fill-rule="evenodd" clip-rule="evenodd" d="M62 18V16H64V18H62Z" fill="currentColor"/>
<path fill-rule="evenodd" clip-rule="evenodd" d="M52 28V26H54V28H52Z" fill="currentColor"/>
<path fill-rule="evenodd" clip-rule="evenodd" d="M50 30V28H52V30H50Z" fill="currentColor"/>
<path fill-rule="evenodd" clip-rule="evenodd" d="M44 28V26H46V28H44Z" fill="currentColor"/>
<path fill-rule="evenodd" clip-rule="evenodd" d="M38 22V20H40V22H38Z" fill="currentColor"/>
<path fill-rule="evenodd" clip-rule="evenodd" d="M36 20V18H38V20H36Z" fill="currentColor"/>
<path fill-rule="evenodd" clip-rule="evenodd" d="M34 18V16H36V18H34Z" fill="currentColor"/>
<path fill-rule="evenodd" clip-rule="evenodd" d="M36 12V10H38V12H36Z" fill="currentColor"/>
<path fill-rule="evenodd" clip-rule="evenodd" d="M26 0H42V4H40V2H26V0Z" fill="currentColor"/>
<path fill-rule="evenodd" clip-rule="evenodd" d="M38 6V4H40V6H38Z" fill="currentColor"/>
<path fill-rule="evenodd" clip-rule="evenodd" d="M24 4V2H26V4H24Z" fill="currentColor"/>
<path fill-rule="evenodd" clip-rule="evenodd" d="M38 14V12H40V14H38Z" fill="currentColor"/>
<path fill-rule="evenodd" clip-rule="evenodd" d="M40 16V14H42V16H40Z" fill="currentColor"/>
<path fill-rule="evenodd" clip-rule="evenodd" d="M42 18V16H44V18H42Z" fill="currentColor"/>
<path fill-rule="evenodd" clip-rule="evenodd" d="M44 20V18H46V20H44Z" fill="currentColor"/>
<path fill-rule="evenodd" clip-rule="evenodd" d="M50 22V20H52V22H50Z" fill="currentColor"/>
<path fill-rule="evenodd" clip-rule="evenodd" d="M52 20V18H54V20H52Z" fill="currentColor"/>
<path fill-rule="evenodd" clip-rule="evenodd" d="M54 18V16H56V18H54Z" fill="currentColor"/>
<path fill-rule="evenodd" clip-rule="evenodd" d="M60 12V10H62V12H60Z" fill="currentColor"/>
<path fill-rule="evenodd" clip-rule="evenodd" d="M62 10V8H64V10H62Z" fill="currentColor"/>
<path fill-rule="evenodd" clip-rule="evenodd" d="M58 22H56V24H62V22H60V20H58V22Z" fill="currentColor"/>
<path fill-rule="evenodd" clip-rule="evenodd" d="M58 14L56 14L56 16H62L62 14L60 14V12H58V14Z" fill="currentColor"/>
<path fill-rule="evenodd" clip-rule="evenodd" d="M20 4H24V6H20V4Z" fill="currentColor"/>
<path fill-rule="evenodd" clip-rule="evenodd" d="M44 36V34H46V36H44Z" fill="currentColor"/>
<path fill-rule="evenodd" clip-rule="evenodd" d="M52 36V34H54V36H52Z" fill="currentColor"/>
<path fill-rule="evenodd" clip-rule="evenodd" d="M50 38V36H52V38H50Z" fill="currentColor"/>
<path fill-rule="evenodd" clip-rule="evenodd" d="M46 38H16V40H50V38H48V36H46V38Z" fill="currentColor"/>
<path fill-rule="evenodd" clip-rule="evenodd" d="M4 20H0V24H2V22H32V20H6V18H4V20Z" fill="currentColor"/>
<path fill-rule="evenodd" clip-rule="evenodd" d="M6 14H2V18H4V16H34V14H8V12H6V14Z" fill="currentColor"/>
<path fill-rule="evenodd" clip-rule="evenodd" d="M18 8H4V12H6V10H36V8H20V6H18V8Z" fill="currentColor"/>
<path fill-rule="evenodd" clip-rule="evenodd" d="M46 22H40V24H42V26H44V24H50V22H48V20H46V22Z" fill="currentColor"/>
<path fill-rule="evenodd" clip-rule="evenodd" d="M40 6H62V8H40V6Z" fill="currentColor"/>
</svg>
