<svg xmlns="http://www.w3.org/2000/svg" viewBox="0 -0.5 24 24" shape-rendering="crispEdges">
<metadata>Made with Pixels to Svg https://codepen.io/shshaw/pen/XbxvNj</metadata>
<path stroke="rgba(0,0,0,0.25098039215686274)" d="M5 3h1M6 5h1M20 5h1M18 6h1M10 7h1M16 10h1M7 13h1M13 16h1M3 18h1M17 18h1M20 18h1M5 20h1M18 20h1" />
<path stroke="rgba(0,0,0,0.7490196078431373)" d="M6 3h2M16 3h1M7 4h2M16 4h1M5 5h1M18 5h1M20 6h1M3 7h2M19 7h2M9 8h1M19 8h1M15 9h1M19 9h1M19 10h1M19 11h1M19 12h1M19 13h1M8 14h1M19 14h1M4 15h1M14 15h1M19 15h1M3 16h2M19 16h2M3 17h1M5 18h1M18 18h1M7 19h1M15 19h2M7 20h1M16 20h2" />
<path stroke="#000000" d="M8 3h8M5 4h2M17 4h2M4 5h1M19 5h1M4 6h1M19 6h1M16 7h1M3 8h1M10 8h4M20 8h1M3 9h1M9 9h1M14 9h1M20 9h1M3 10h1M8 10h1M15 10h1M20 10h1M3 11h1M8 11h1M15 11h1M20 11h1M3 12h1M8 12h1M15 12h1M20 12h1M3 13h1M8 13h1M15 13h1M20 13h1M3 14h1M9 14h1M14 14h1M20 14h1M3 15h1M10 15h4M20 15h1M4 17h1M19 17h1M4 18h1M19 18h1M5 19h2M17 19h2M8 20h8" />
<path stroke="rgba(0,0,0,0.5019607843137255)" d="M17 3h1M4 4h1M9 4h7M19 4h1M3 6h1M11 7h3M4 8h1M14 8h1M4 9h1M8 9h1M10 9h1M13 9h1M4 10h1M7 10h1M9 10h1M14 10h1M4 11h1M7 11h1M16 11h1M4 12h1M7 12h1M16 12h1M4 13h1M9 13h1M14 13h1M16 13h1M4 14h1M10 14h1M13 14h1M15 14h1M9 15h1M10 16h3M20 17h1M4 19h1M8 19h7M19 19h1M6 20h1" />
<path stroke="rgba(0,0,0,0.36470588235294116)" d="M15 6h1" />
<path stroke="rgba(0,0,0,0.8705882352941177)" d="M16 6h1" />
<path stroke="rgba(0,0,0,0.8117647058823529)" d="M17 6h1" />
<path stroke="rgba(0,0,0,0.27450980392156865)" d="M15 7h1" />
<path stroke="rgba(0,0,0,0.8823529411764706)" d="M17 7h1" />
<path stroke="rgba(0,0,0,0.2980392156862745)" d="M15 8h1" />
<path stroke="rgba(0,0,0,0.28627450980392155)" d="M16 8h1" />
<path stroke="rgba(0,0,0,0.37254901960784315)" d="M17 8h1" />
</svg>