<svg width="50" height="64" viewBox="0 0 50 64" fill="none" xmlns="http://www.w3.org/2000/svg">
<path fill-rule="evenodd" clip-rule="evenodd" d="M0 0H38V2H40V4H38V12H46V10H48V12H50V64H0V0ZM44 8H46V10H44V8ZM44 8V6H42V4H40V6H42V8H44ZM2 2V62H48V14H36V12H30V10H36V2H2ZM18 12H12V10H18V12ZM28 12H20V10H28V12ZM14 16H8V14H14V16ZM22 16H16V14H22V16ZM34 16H24V14H34V16ZM18 20H8V18H18V20ZM32 20H20V18H32V20ZM42 18V20H34V18H42ZM14 24H8V22H14V24ZM22 24H16V22H22V24ZM30 24H24V22H30V24ZM40 22V24H32V22H40ZM20 28V30H12V28H20ZM30 30H22V28H30V30ZM42 28V30H32V28H42ZM16 32V34H8V32H16ZM26 32V34H18V32H26ZM36 32V34H28V32H36ZM42 32V34H38V32H42ZM12 38H8V36H12V38ZM22 36V38H14V36H22ZM32 36V38H24V36H32ZM42 36V38H34V36H42ZM16 40V42H8V40H16ZM28 42H18V40H28V42ZM38 40V42H30V40H38ZM20 46V48H12V46H20ZM28 48H22V46H28V48ZM34 46V48H30V46H34ZM42 48H36V46H42V48ZM16 50V52H8V50H16ZM24 52H18V50H24V52ZM32 52H26V50H32V52ZM42 50V52H34V50H42ZM14 56H8V54H14V56ZM26 56H16V54H26V56ZM36 54V56H28V54H36ZM42 54V56H38V54H42Z" fill="currentColor"/>
</svg>
