<svg xmlns="http://www.w3.org/2000/svg" viewBox="0 -0.5 24 24" shape-rendering="crispEdges">
<metadata>Made with Pixels to Svg https://codepen.io/shshaw/pen/XbxvNj</metadata>
<path stroke="rgba(0,0,0,0.25098039215686274)" d="M8 2h1M15 2h1M6 3h1M17 3h1M7 6h1M16 6h1M20 6h1M14 7h1M2 8h1M21 8h1M17 9h1M2 15h1M5 16h1M13 16h1M3 17h1M9 19h1M17 20h1M9 21h1M14 21h2" />
<path stroke="rgba(0,0,0,0.5019607843137255)" d="M9 2h1M14 2h1M5 4h1M18 4h1M4 5h1M19 5h1M8 6h1M3 7h1M6 7h1M17 7h1M17 8h1M2 9h1M6 9h1M21 9h1M2 10h1M2 14h1M6 14h1M17 14h1M21 14h1M7 15h1M16 15h1M21 15h1M6 16h1M20 16h1M7 17h1M9 17h1M20 17h1M4 18h1M6 18h1M14 18h1M19 18h1M5 19h1M14 19h1M18 19h1M6 20h2M9 20h1M14 20h1M8 21h1" />
<path stroke="rgba(0,0,0,0.7490196078431373)" d="M10 2h2M13 2h1M7 3h1M16 3h1M6 6h1M15 6h1M17 6h1M20 7h1M6 8h1M5 10h1M18 10h1M21 10h1M5 11h1M18 11h1M2 12h1M5 12h1M18 12h1M2 13h1M21 13h1M3 16h1M9 16h1M14 16h1M5 17h1M14 17h1M8 19h1M16 20h1" />
<path stroke="#000000" d="M12 2h1M8 3h8M6 4h12M5 5h14M4 6h2M9 6h6M18 6h2M4 7h2M18 7h2M3 8h3M18 8h3M3 9h3M18 9h3M3 10h2M19 10h2M2 11h3M19 11h3M3 12h2M19 12h3M3 13h3M18 13h3M3 14h3M18 14h3M3 15h4M17 15h4M4 16h1M7 16h2M15 16h5M4 17h1M8 17h1M15 17h5M5 18h1M15 18h4M6 19h2M15 19h3M8 20h1M15 20h1" />
</svg>