<svg xmlns="http://www.w3.org/2000/svg" viewBox="0 -0.5 24 24" shape-rendering="crispEdges">
<metadata>Made with Pixels to Svg https://codepen.io/shshaw/pen/XbxvNj</metadata>
<path stroke="rgba(0,0,0,0.043137254901960784)" d="M3 2h1M6 7h1" />
<path stroke="rgba(0,0,0,0.08235294117647059)" d="M4 2h1" />
<path stroke="rgba(0,0,0,0.06666666666666667)" d="M5 2h1" />
<path stroke="rgba(0,0,0,0.03529411764705882)" d="M6 2h1" />
<path stroke="rgba(0,0,0,0.047058823529411764)" d="M2 3h1" />
<path stroke="rgba(0,0,0,0.5450980392156862)" d="M3 3h1" />
<path stroke="#000000" d="M4 3h2M3 4h4M3 5h4M4 6h2M3 9h3M10 9h2M15 9h4M3 10h3M10 10h2M13 10h7M3 11h3M10 11h10M3 12h3M10 12h3M17 12h3M3 13h3M10 13h3M17 13h4M3 14h3M10 14h3M18 14h3M3 15h3M10 15h3M18 15h3M3 16h3M10 16h3M18 16h3M3 17h3M10 17h3M18 17h3M3 18h3M10 18h3M18 18h3M3 19h3M10 19h3M18 19h3M3 20h3M10 20h3M18 20h3" />
<path stroke="rgba(0,0,0,0.5333333333333333)" d="M6 3h1" />
<path stroke="rgba(0,0,0,0.03137254901960784)" d="M7 3h1" />
<path stroke="rgba(0,0,0,0.09803921568627451)" d="M2 4h1M4 7h1" />
<path stroke="rgba(0,0,0,0.06274509803921569)" d="M7 4h1" />
<path stroke="rgba(0,0,0,0.10196078431372549)" d="M2 5h1" />
<path stroke="rgba(0,0,0,0.07058823529411765)" d="M7 5h1" />
<path stroke="rgba(0,0,0,0.050980392156862744)" d="M2 6h1M3 7h1" />
<path stroke="rgba(0,0,0,0.5529411764705883)" d="M3 6h1" />
<path stroke="rgba(0,0,0,0.5411764705882353)" d="M6 6h1" />
<path stroke="rgba(0,0,0,0.0392156862745098)" d="M7 6h1" />
<path stroke="rgba(0,0,0,0.08627450980392157)" d="M5 7h1" />
<path stroke="rgba(0,0,0,0.25098039215686274)" d="M3 8h4M9 8h4M15 8h3M13 9h1M20 10h1M13 13h1" />
<path stroke="rgba(0,0,0,0.7490196078431373)" d="M6 9h1M9 9h1M12 9h1M14 9h1M6 10h1M9 10h1M12 10h1M6 11h1M9 11h1M20 11h1M6 12h1M9 12h1M20 12h1M6 13h1M9 13h1M6 14h1M9 14h1M17 14h1M6 15h1M9 15h1M17 15h1M6 16h1M9 16h1M17 16h1M6 17h1M9 17h1M17 17h1M6 18h1M9 18h1M17 18h1M6 19h1M9 19h1M17 19h1M6 20h1M9 20h1M17 20h1" />
<path stroke="rgba(0,0,0,0.5019607843137255)" d="M19 9h1M13 12h1M16 12h1" />
</svg>