<svg viewBox="0 0 46 64" fill="none" xmlns="http://www.w3.org/2000/svg">
<path fill-rule="evenodd" clip-rule="evenodd" d="M28 2H18V0H28V2ZM44 6H2V4H16V2H18V4H28V2H30V4H44V6ZM2 10V6H0V12H2L2 62H4L4 64H42V62H44V12H46V6H44V10H2ZM42 12V62H4L4 12H42ZM12 18V16H14V18H12ZM12 56H10V18H12V56ZM12 56V58H14V56H12ZM20 18V16H22V18H20ZM20 56H18V18H20V56ZM20 56V58H22V56H20ZM28 18V16H30V18H28ZM28 56H26V18H28V56ZM28 56V58H30V56H28ZM36 18V16H38V18H36ZM36 56H34V18H36V56ZM36 56V58H38V56H36Z" fill="currentColor"/>
</svg>
