<svg width="60" height="62" viewBox="0 0 60 62" fill="none" xmlns="http://www.w3.org/2000/svg">
<path fill-rule="evenodd" clip-rule="evenodd" d="M32 60H24V62H36V60H34V58H32V60Z" fill="currentColor"/>
<path fill-rule="evenodd" clip-rule="evenodd" d="M18 58H24V60H18V58Z" fill="currentColor"/>
<path fill-rule="evenodd" clip-rule="evenodd" d="M36 58H42V60H36V58Z" fill="currentColor"/>
<path fill-rule="evenodd" clip-rule="evenodd" d="M14 56H18V58H14V56Z" fill="currentColor"/>
<path fill-rule="evenodd" clip-rule="evenodd" d="M42 56H46V58H42V56Z" fill="currentColor"/>
<path fill-rule="evenodd" clip-rule="evenodd" d="M12 54L14 54V56H12V54Z" fill="currentColor"/>
<path fill-rule="evenodd" clip-rule="evenodd" d="M46 54L48 54V56L46 56V54Z" fill="currentColor"/>
<path fill-rule="evenodd" clip-rule="evenodd" d="M10 52L12 52V54H10V52Z" fill="currentColor"/>
<path fill-rule="evenodd" clip-rule="evenodd" d="M48 52L50 52V54H48V52Z" fill="currentColor"/>
<path fill-rule="evenodd" clip-rule="evenodd" d="M8 50L10 50V52H8V50Z" fill="currentColor"/>
<path fill-rule="evenodd" clip-rule="evenodd" d="M50 50L52 50V52H50V50Z" fill="currentColor"/>
<path fill-rule="evenodd" clip-rule="evenodd" d="M6 48L8 48V50H6V48Z" fill="currentColor"/>
<path fill-rule="evenodd" clip-rule="evenodd" d="M52 48L54 48V50H52V48Z" fill="currentColor"/>
<path fill-rule="evenodd" clip-rule="evenodd" d="M6 12H8V14H6V12Z" fill="currentColor"/>
<path fill-rule="evenodd" clip-rule="evenodd" d="M8 10H10V12H8V10Z" fill="currentColor"/>
<path fill-rule="evenodd" clip-rule="evenodd" d="M10 8H12V10H10V8Z" fill="currentColor"/>
<path fill-rule="evenodd" clip-rule="evenodd" d="M12 6H14V8H12V6Z" fill="currentColor"/>
<path fill-rule="evenodd" clip-rule="evenodd" d="M46 6H48V8H46V6Z" fill="currentColor"/>
<path fill-rule="evenodd" clip-rule="evenodd" d="M48 8H50V10H48V8Z" fill="currentColor"/>
<path fill-rule="evenodd" clip-rule="evenodd" d="M50 10H52V12H50V10Z" fill="currentColor"/>
<path fill-rule="evenodd" clip-rule="evenodd" d="M52 12H54V14H52V12Z" fill="currentColor"/>
<path fill-rule="evenodd" clip-rule="evenodd" d="M14 4L18 4V8L16 8V6H14V4Z" fill="currentColor"/>
<path fill-rule="evenodd" clip-rule="evenodd" d="M42 4L46 4V6H42V4Z" fill="currentColor"/>
<path fill-rule="evenodd" clip-rule="evenodd" d="M18 2L24 2V6L22 6V4L18 4V2Z" fill="currentColor"/>
<path fill-rule="evenodd" clip-rule="evenodd" d="M24 0L36 2.77784e-08V2L42 2V4H38V6H36V4H34V2L24 2V0Z" fill="currentColor"/>
<path fill-rule="evenodd" clip-rule="evenodd" d="M4 48V44H6V48H4Z" fill="currentColor"/>
<path fill-rule="evenodd" clip-rule="evenodd" d="M54 48V44H56V48L54 48Z" fill="currentColor"/>
<path fill-rule="evenodd" clip-rule="evenodd" d="M4 14H6V16H8V18H4V14Z" fill="currentColor"/>
<path fill-rule="evenodd" clip-rule="evenodd" d="M54 16V14H56V18H58V24H56V20H54V18H52V16H54Z" fill="currentColor"/>
<path fill-rule="evenodd" clip-rule="evenodd" d="M2 44V38H4V44H2Z" fill="currentColor"/>
<path fill-rule="evenodd" clip-rule="evenodd" d="M56 44V38H58V44H56Z" fill="currentColor"/>
<path fill-rule="evenodd" clip-rule="evenodd" d="M2 24V18H4V24H2Z" fill="currentColor"/>
<path fill-rule="evenodd" clip-rule="evenodd" d="M0 38V24H2V38H0Z" fill="currentColor"/>
<path fill-rule="evenodd" clip-rule="evenodd" d="M58 28V24H60V38H58V34H56V32H58V30H56V28H58Z" fill="currentColor"/>
<path fill-rule="evenodd" clip-rule="evenodd" d="M34 58V56H36V58H34Z" fill="currentColor"/>
<path fill-rule="evenodd" clip-rule="evenodd" d="M32 56V54H34V56H32Z" fill="currentColor"/>
<path fill-rule="evenodd" clip-rule="evenodd" d="M36 56V54H38V56H36Z" fill="currentColor"/>
<path fill-rule="evenodd" clip-rule="evenodd" d="M34 54V52H36V54H34Z" fill="currentColor"/>
<path fill-rule="evenodd" clip-rule="evenodd" d="M38 54V52H40V54H38Z" fill="currentColor"/>
<path fill-rule="evenodd" clip-rule="evenodd" d="M40 52V50H42V52H40Z" fill="currentColor"/>
<path fill-rule="evenodd" clip-rule="evenodd" d="M36 52V50H38V52H36Z" fill="currentColor"/>
<path fill-rule="evenodd" clip-rule="evenodd" d="M38 50V48H40V50H38Z" fill="currentColor"/>
<path fill-rule="evenodd" clip-rule="evenodd" d="M40 48V46H42V48H40Z" fill="currentColor"/>
<path fill-rule="evenodd" clip-rule="evenodd" d="M36 48V46H38V48H36Z" fill="currentColor"/>
<path fill-rule="evenodd" clip-rule="evenodd" d="M32 48V46H34V48H32Z" fill="currentColor"/>
<path fill-rule="evenodd" clip-rule="evenodd" d="M30 46V44H32V46H30Z" fill="currentColor"/>
<path fill-rule="evenodd" clip-rule="evenodd" d="M28 44V42H30V44H28Z" fill="currentColor"/>
<path fill-rule="evenodd" clip-rule="evenodd" d="M26 42V40H28V42H26Z" fill="currentColor"/>
<path fill-rule="evenodd" clip-rule="evenodd" d="M24 40V38H26V40H24Z" fill="currentColor"/>
<path fill-rule="evenodd" clip-rule="evenodd" d="M26 38V36H28V38H26Z" fill="currentColor"/>
<path fill-rule="evenodd" clip-rule="evenodd" d="M24 44V42H26V44H24Z" fill="currentColor"/>
<path fill-rule="evenodd" clip-rule="evenodd" d="M22 42V40H24V42H22Z" fill="currentColor"/>
<path fill-rule="evenodd" clip-rule="evenodd" d="M20 40V38H22V40H20Z" fill="currentColor"/>
<path fill-rule="evenodd" clip-rule="evenodd" d="M18 38V36H20V38H18Z" fill="currentColor"/>
<path fill-rule="evenodd" clip-rule="evenodd" d="M14 38V36H16V38H14Z" fill="currentColor"/>
<path fill-rule="evenodd" clip-rule="evenodd" d="M12 36V34H14V36H12Z" fill="currentColor"/>
<path fill-rule="evenodd" clip-rule="evenodd" d="M14 34V32H16V34L14 34Z" fill="currentColor"/>
<path fill-rule="evenodd" clip-rule="evenodd" d="M18 34V32H20V34H18Z" fill="currentColor"/>
<path fill-rule="evenodd" clip-rule="evenodd" d="M22 34V32H24V34H22Z" fill="currentColor"/>
<path fill-rule="evenodd" clip-rule="evenodd" d="M26 34V32H28V34H26Z" fill="currentColor"/>
<path fill-rule="evenodd" clip-rule="evenodd" d="M28 32V30H30V32L28 32Z" fill="currentColor"/>
<path fill-rule="evenodd" clip-rule="evenodd" d="M24 32V30H26V32H24Z" fill="currentColor"/>
<path fill-rule="evenodd" clip-rule="evenodd" d="M20 32V30H22V32H20Z" fill="currentColor"/>
<path fill-rule="evenodd" clip-rule="evenodd" d="M16 32V30H18V32H16Z" fill="currentColor"/>
<path fill-rule="evenodd" clip-rule="evenodd" d="M12 32V30H14V32L12 32Z" fill="currentColor"/>
<path fill-rule="evenodd" clip-rule="evenodd" d="M10 30V28H12V30H10Z" fill="currentColor"/>
<path fill-rule="evenodd" clip-rule="evenodd" d="M14 30V28H16V30H14Z" fill="currentColor"/>
<path fill-rule="evenodd" clip-rule="evenodd" d="M18 30V28H20V30H18Z" fill="currentColor"/>
<path fill-rule="evenodd" clip-rule="evenodd" d="M22 30V28H24V30H22Z" fill="currentColor"/>
<path fill-rule="evenodd" clip-rule="evenodd" d="M26 30V28H28V30H26Z" fill="currentColor"/>
<path fill-rule="evenodd" clip-rule="evenodd" d="M30 30V28H32V30H30Z" fill="currentColor"/>
<path fill-rule="evenodd" clip-rule="evenodd" d="M28 28V26H30V28H28Z" fill="currentColor"/>
<path fill-rule="evenodd" clip-rule="evenodd" d="M24 28V26H26V28H24Z" fill="currentColor"/>
<path fill-rule="evenodd" clip-rule="evenodd" d="M20 28V26H22V28H20Z" fill="currentColor"/>
<path fill-rule="evenodd" clip-rule="evenodd" d="M16 28V26H18V28H16Z" fill="currentColor"/>
<path fill-rule="evenodd" clip-rule="evenodd" d="M12 28V26H14V28H12Z" fill="currentColor"/>
<path fill-rule="evenodd" clip-rule="evenodd" d="M10 26V24H12V26H10Z" fill="currentColor"/>
<path fill-rule="evenodd" clip-rule="evenodd" d="M14 26V24H16V26H14Z" fill="currentColor"/>
<path fill-rule="evenodd" clip-rule="evenodd" d="M18 26V24H20V26H18Z" fill="currentColor"/>
<path fill-rule="evenodd" clip-rule="evenodd" d="M22 26V24H24V26H22Z" fill="currentColor"/>
<path fill-rule="evenodd" clip-rule="evenodd" d="M26 26V24H28V26H26Z" fill="currentColor"/>
<path fill-rule="evenodd" clip-rule="evenodd" d="M30 26V24H32V26H30Z" fill="currentColor"/>
<path fill-rule="evenodd" clip-rule="evenodd" d="M34 26V24H36V26H34Z" fill="currentColor"/>
<path fill-rule="evenodd" clip-rule="evenodd" d="M32 24V22H34V24H32Z" fill="currentColor"/>
<path fill-rule="evenodd" clip-rule="evenodd" d="M28 24V22H30V24H28Z" fill="currentColor"/>
<path fill-rule="evenodd" clip-rule="evenodd" d="M24 24V22H26V24H24Z" fill="currentColor"/>
<path fill-rule="evenodd" clip-rule="evenodd" d="M20 24V22H22V24H20Z" fill="currentColor"/>
<path fill-rule="evenodd" clip-rule="evenodd" d="M16 24V22H18V24H16Z" fill="currentColor"/>
<path fill-rule="evenodd" clip-rule="evenodd" d="M12 24V22H14V24H12Z" fill="currentColor"/>
<path fill-rule="evenodd" clip-rule="evenodd" d="M10 22V20H12V22H10Z" fill="currentColor"/>
<path fill-rule="evenodd" clip-rule="evenodd" d="M8 20V18H10V20H8Z" fill="currentColor"/>
<path fill-rule="evenodd" clip-rule="evenodd" d="M10 18V16H12V18H10Z" fill="currentColor"/>
<path fill-rule="evenodd" clip-rule="evenodd" d="M14 18V16H16V18H14Z" fill="currentColor"/>
<path fill-rule="evenodd" clip-rule="evenodd" d="M18 18V16H20V18H18Z" fill="currentColor"/>
<path fill-rule="evenodd" clip-rule="evenodd" d="M22 18V16H24V18H22Z" fill="currentColor"/>
<path fill-rule="evenodd" clip-rule="evenodd" d="M24 20V18H26V20H24Z" fill="currentColor"/>
<path fill-rule="evenodd" clip-rule="evenodd" d="M26 18V16H28V18H26Z" fill="currentColor"/>
<path fill-rule="evenodd" clip-rule="evenodd" d="M28 16V14H30V16H28Z" fill="currentColor"/>
<path fill-rule="evenodd" clip-rule="evenodd" d="M24 16V14H26V16H24Z" fill="currentColor"/>
<path fill-rule="evenodd" clip-rule="evenodd" d="M20 16V14H22V16H20Z" fill="currentColor"/>
<path fill-rule="evenodd" clip-rule="evenodd" d="M16 16V14H18V16H16Z" fill="currentColor"/>
<path fill-rule="evenodd" clip-rule="evenodd" d="M12 16V14H14V16H12Z" fill="currentColor"/>
<path fill-rule="evenodd" clip-rule="evenodd" d="M8 16V14H10V16H8Z" fill="currentColor"/>
<path fill-rule="evenodd" clip-rule="evenodd" d="M10 14V12H12V14H10Z" fill="currentColor"/>
<path fill-rule="evenodd" clip-rule="evenodd" d="M14 14V12H16V14H14Z" fill="currentColor"/>
<path fill-rule="evenodd" clip-rule="evenodd" d="M18 14V12H20V14H18Z" fill="currentColor"/>
<path fill-rule="evenodd" clip-rule="evenodd" d="M22 14V12H24V14H22Z" fill="currentColor"/>
<path fill-rule="evenodd" clip-rule="evenodd" d="M20 12V10H22V12H20Z" fill="currentColor"/>
<path fill-rule="evenodd" clip-rule="evenodd" d="M22 10V8H24V10H22Z" fill="currentColor"/>
<path fill-rule="evenodd" clip-rule="evenodd" d="M18 10V8L20 8V10H18Z" fill="currentColor"/>
<path fill-rule="evenodd" clip-rule="evenodd" d="M14 10V8H16V10H14Z" fill="currentColor"/>
<path fill-rule="evenodd" clip-rule="evenodd" d="M20 8V6L22 6V8H20Z" fill="currentColor"/>
<path fill-rule="evenodd" clip-rule="evenodd" d="M24 8V6L26 6V8H24Z" fill="currentColor"/>
<path fill-rule="evenodd" clip-rule="evenodd" d="M26 10V8H28V10H26Z" fill="currentColor"/>
<path fill-rule="evenodd" clip-rule="evenodd" d="M16 12V10H18V12H16Z" fill="currentColor"/>
<path fill-rule="evenodd" clip-rule="evenodd" d="M12 12V10H14V12H12Z" fill="currentColor"/>
<path fill-rule="evenodd" clip-rule="evenodd" d="M30 14V12H32V14H30Z" fill="currentColor"/>
<path fill-rule="evenodd" clip-rule="evenodd" d="M34 12V10H36V12H34Z" fill="currentColor"/>
<path fill-rule="evenodd" clip-rule="evenodd" d="M32 10V8H34V10H32Z" fill="currentColor"/>
<path fill-rule="evenodd" clip-rule="evenodd" d="M34 8V6H36V8H34Z" fill="currentColor"/>
<path fill-rule="evenodd" clip-rule="evenodd" d="M36 10V8H38V10H36Z" fill="currentColor"/>
<path fill-rule="evenodd" clip-rule="evenodd" d="M38 8V6H40V8H38Z" fill="currentColor"/>
<path fill-rule="evenodd" clip-rule="evenodd" d="M28 20V18H30V20H28Z" fill="currentColor"/>
<path fill-rule="evenodd" clip-rule="evenodd" d="M30 18V16H32V18H30Z" fill="currentColor"/>
<path fill-rule="evenodd" clip-rule="evenodd" d="M32 16V14H34V16H32Z" fill="currentColor"/>
<path fill-rule="evenodd" clip-rule="evenodd" d="M38 16V14H40V16H38Z" fill="currentColor"/>
<path fill-rule="evenodd" clip-rule="evenodd" d="M40 14V12H42V14H40Z" fill="currentColor"/>
<path fill-rule="evenodd" clip-rule="evenodd" d="M44 14V12H46V14H44Z" fill="currentColor"/>
<path fill-rule="evenodd" clip-rule="evenodd" d="M48 14V12H50V14H48Z" fill="currentColor"/>
<path fill-rule="evenodd" clip-rule="evenodd" d="M46 12V10H48V12H46Z" fill="currentColor"/>
<path fill-rule="evenodd" clip-rule="evenodd" d="M42 16V14H44V16H42Z" fill="currentColor"/>
<path fill-rule="evenodd" clip-rule="evenodd" d="M44 18V16H46V18H44Z" fill="currentColor"/>
<path fill-rule="evenodd" clip-rule="evenodd" d="M42 20V18H44V20H42Z" fill="currentColor"/>
<path fill-rule="evenodd" clip-rule="evenodd" d="M40 22V20H42V22H40Z" fill="currentColor"/>
<path fill-rule="evenodd" clip-rule="evenodd" d="M42 24V22H44V24H42Z" fill="currentColor"/>
<path fill-rule="evenodd" clip-rule="evenodd" d="M44 22V20H46V22H44Z" fill="currentColor"/>
<path fill-rule="evenodd" clip-rule="evenodd" d="M48 22V20H50V22H48Z" fill="currentColor"/>
<path fill-rule="evenodd" clip-rule="evenodd" d="M48 26V24H50V26H48Z" fill="currentColor"/>
<path fill-rule="evenodd" clip-rule="evenodd" d="M50 28V26H52V28H50Z" fill="currentColor"/>
<path fill-rule="evenodd" clip-rule="evenodd" d="M54 28V26H56V28H54Z" fill="currentColor"/>
<path fill-rule="evenodd" clip-rule="evenodd" d="M46 28V26H48V28H46Z" fill="currentColor"/>
<path fill-rule="evenodd" clip-rule="evenodd" d="M44 30V28H46V30H44Z" fill="currentColor"/>
<path fill-rule="evenodd" clip-rule="evenodd" d="M42 32V30H44V32H42Z" fill="currentColor"/>
<path fill-rule="evenodd" clip-rule="evenodd" d="M44 34V32L46 32V34H44Z" fill="currentColor"/>
<path fill-rule="evenodd" clip-rule="evenodd" d="M42 36V34L44 34V36H42Z" fill="currentColor"/>
<path fill-rule="evenodd" clip-rule="evenodd" d="M44 38V36H46V38H44Z" fill="currentColor"/>
<path fill-rule="evenodd" clip-rule="evenodd" d="M48 38V36H50V38H48Z" fill="currentColor"/>
<path fill-rule="evenodd" clip-rule="evenodd" d="M46 36V34L48 34V36H46Z" fill="currentColor"/>
<path fill-rule="evenodd" clip-rule="evenodd" d="M50 36V34H52V36H50Z" fill="currentColor"/>
<path fill-rule="evenodd" clip-rule="evenodd" d="M54 36V34H56V36H54Z" fill="currentColor"/>
<path fill-rule="evenodd" clip-rule="evenodd" d="M48 34V32H50V34H48Z" fill="currentColor"/>
<path fill-rule="evenodd" clip-rule="evenodd" d="M52 34V32H54V34H52Z" fill="currentColor"/>
<path fill-rule="evenodd" clip-rule="evenodd" d="M46 32V30H48V32H46Z" fill="currentColor"/>
<path fill-rule="evenodd" clip-rule="evenodd" d="M50 32V30H52V32H50Z" fill="currentColor"/>
<path fill-rule="evenodd" clip-rule="evenodd" d="M54 32V30H56V32L54 32Z" fill="currentColor"/>
<path fill-rule="evenodd" clip-rule="evenodd" d="M48 30V28H50V30H48Z" fill="currentColor"/>
<path fill-rule="evenodd" clip-rule="evenodd" d="M52 30V28H54V30H52Z" fill="currentColor"/>
<path fill-rule="evenodd" clip-rule="evenodd" d="M52 22V20H54V22H52Z" fill="currentColor"/>
<path fill-rule="evenodd" clip-rule="evenodd" d="M46 20V18H48V20H46Z" fill="currentColor"/>
<path fill-rule="evenodd" clip-rule="evenodd" d="M50 20V18H52V20H50Z" fill="currentColor"/>
<path fill-rule="evenodd" clip-rule="evenodd" d="M48 18V16H50V18H48Z" fill="currentColor"/>
<path fill-rule="evenodd" clip-rule="evenodd" d="M46 16V14H48V16H46Z" fill="currentColor"/>
<path fill-rule="evenodd" clip-rule="evenodd" d="M50 16V14H52V16H50Z" fill="currentColor"/>
<path fill-rule="evenodd" clip-rule="evenodd" d="M32 20V18H34V20H32Z" fill="currentColor"/>
<path fill-rule="evenodd" clip-rule="evenodd" d="M12 20V18H14V20H12Z" fill="currentColor"/>
<path fill-rule="evenodd" clip-rule="evenodd" d="M16 20V18H18V20H16Z" fill="currentColor"/>
<path fill-rule="evenodd" clip-rule="evenodd" d="M14 22V20H16V22H14Z" fill="currentColor"/>
<path fill-rule="evenodd" clip-rule="evenodd" d="M18 22V20H20V22H18Z" fill="currentColor"/>
<path fill-rule="evenodd" clip-rule="evenodd" d="M16 36V34H18V36H16Z" fill="currentColor"/>
<path fill-rule="evenodd" clip-rule="evenodd" d="M20 36V34H22V36H20Z" fill="currentColor"/>
<path fill-rule="evenodd" clip-rule="evenodd" d="M24 36V34H26V36H24Z" fill="currentColor"/>
<path fill-rule="evenodd" clip-rule="evenodd" d="M28 36V34L30 34V36H28Z" fill="currentColor"/>
<path fill-rule="evenodd" clip-rule="evenodd" d="M34 46V44H36V46H34Z" fill="currentColor"/>
<path fill-rule="evenodd" clip-rule="evenodd" d="M38 46V44H40V46H38Z" fill="currentColor"/>
<path fill-rule="evenodd" clip-rule="evenodd" d="M36 44V42H38V44H36Z" fill="currentColor"/>
<path fill-rule="evenodd" clip-rule="evenodd" d="M32 44V42H34V44H32Z" fill="currentColor"/>
<path fill-rule="evenodd" clip-rule="evenodd" d="M34 42V40H36V42H34Z" fill="currentColor"/>
<path fill-rule="evenodd" clip-rule="evenodd" d="M32 52V50H34V52H32Z" fill="currentColor"/>
<path fill-rule="evenodd" clip-rule="evenodd" d="M34 50V48H36V50H34Z" fill="currentColor"/>
</svg>
